<svg width="1200" height="300" viewBox="0 0 1200 300" fill="none" xmlns="http://www.w3.org/2000/svg">
<g clip-path="url(#clip0)">
<rect width="1200" height="300" fill="white"/>
<g filter="url(#filter0_d)">
<path fill-rule="evenodd" clip-rule="evenodd" d="M3 0C1.34314 0 0 1.34315 0 3V297C0 298.657 1.34315 300 3 300H1197C1198.66 300 1200 298.657 1200 297V3C1200 1.34314 1198.66 0 1197 0H3Z" fill="#212121"/>
</g>
<rect x="309" y="75" width="15" height="150" rx="7.5" fill="url(#paint0_linear)"/>
<circle cx="317" cy="135" r="15" fill="#00BCD4"/>
<rect x="422" y="75" width="15" height="150" rx="7.5" fill="url(#paint1_linear)"/>
<circle cx="430" cy="154" r="15" fill="#009688"/>
<rect x="535" y="75" width="15" height="150" rx="7.5" fill="url(#paint2_linear)"/>
<circle cx="543" cy="124" r="15" fill="#CDDC39"/>
<rect x="648" y="75" width="15" height="150" rx="7.5" fill="url(#paint3_linear)"/>
<circle cx="656" cy="184" r="15" fill="#3F51B5"/>
<rect x="875" y="75" width="15" height="150" rx="7.5" fill="url(#paint4_linear)"/>
<circle cx="883" cy="142" r="15" fill="#FFC107"/>
<rect x="763" y="75" width="15" height="150" rx="7.5" fill="url(#paint5_linear)"/>
<circle cx="770.5" cy="149.5" r="37.5" fill="#FF5722" fill-opacity="0.25"/>
<circle cx="770.5" cy="149.5" r="17.5" fill="#FF5722"/>
</g>
<defs>
<filter id="filter0_d" x="-3" y="0" width="1210" height="310" filterUnits="userSpaceOnUse" color-interpolation-filters="sRGB">
<feFlood flood-opacity="0" result="BackgroundImageFix"/>
<feColorMatrix in="SourceAlpha" type="matrix" values="0 0 0 0 0 0 0 0 0 0 0 0 0 0 0 0 0 0 127 0"/>
<feOffset dx="2" dy="5"/>
<feGaussianBlur stdDeviation="2.5"/>
<feColorMatrix type="matrix" values="0 0 0 0 0 0 0 0 0 0 0 0 0 0 0 0 0 0 0.25 0"/>
<feBlend mode="normal" in2="BackgroundImageFix" result="effect1_dropShadow"/>
<feBlend mode="normal" in="SourceGraphic" in2="effect1_dropShadow" result="shape"/>
</filter>
<linearGradient id="paint0_linear" x1="316.5" y1="75" x2="316.5" y2="225" gradientUnits="userSpaceOnUse">
<stop offset="0.392265" stop-color="#00BCD4" stop-opacity="0.25"/>
<stop offset="0.668508" stop-color="#00BCD4"/>
</linearGradient>
<linearGradient id="paint1_linear" x1="429.5" y1="75" x2="429.5" y2="225" gradientUnits="userSpaceOnUse">
<stop offset="0.541436" stop-color="#009688" stop-opacity="0.25"/>
<stop offset="0.701657" stop-color="#009688"/>
</linearGradient>
<linearGradient id="paint2_linear" x1="542.5" y1="75" x2="542.5" y2="225" gradientUnits="userSpaceOnUse">
<stop offset="0.320442" stop-color="#CDDC39" stop-opacity="0.25"/>
<stop offset="0.624309" stop-color="#CDDC39"/>
</linearGradient>
<linearGradient id="paint3_linear" x1="655.5" y1="75" x2="655.5" y2="225" gradientUnits="userSpaceOnUse">
<stop offset="0.729282" stop-color="#3F51B5" stop-opacity="0.25"/>
<stop offset="1" stop-color="#3F51B5"/>
</linearGradient>
<linearGradient id="paint4_linear" x1="882.5" y1="75" x2="882.5" y2="225" gradientUnits="userSpaceOnUse">
<stop offset="0.441989" stop-color="#FFC107" stop-opacity="0.25"/>
<stop offset="0.701657" stop-color="#FFC107"/>
</linearGradient>
<linearGradient id="paint5_linear" x1="770.5" y1="75" x2="770.5" y2="225" gradientUnits="userSpaceOnUse">
<stop offset="0.494118" stop-color="#FF5722" stop-opacity="0.25"/>
<stop offset="0.690608" stop-color="#FF5722"/>
</linearGradient>
<clipPath id="clip0">
<rect width="1200" height="300" fill="white"/>
</clipPath>
</defs>
</svg>
